<svg xmlns="http://www.w3.org/2000/svg" viewBox="0 0 100 125" width="100" height="125">
	<style>
		tspan { white-space:pre }
		.shp0 { fill: #d44949ab } 
	</style>
	<path id="Layer" class="shp0" d="M100,14.95c-0.01,-1.98 -0.4,-3.93 -1.17,-5.76c-0.77,-1.82 -1.88,-3.48 -3.29,-4.87c-1.41,-1.39 -3.07,-2.49 -4.91,-3.23c-1.83,-0.74 -3.79,-1.12 -5.77,-1.1l-69.72,0c-1.98,-0.02 -3.94,0.35 -5.77,1.1c-1.83,0.74 -3.5,1.84 -4.91,3.23c-1.41,1.39 -2.53,3.04 -3.29,4.87c-0.77,1.82 -1.16,3.78 -1.17,5.76v46.58c0.01,1.98 0.41,3.93 1.17,5.75c0.77,1.82 1.88,3.47 3.29,4.86c1.41,1.39 3.07,2.48 4.91,3.23c1.83,0.74 3.79,1.11 5.77,1.1h14.09v23.53l25.17,-23.53h30.46c1.98,0.02 3.94,-0.35 5.77,-1.1c1.83,-0.74 3.5,-1.84 4.91,-3.23c1.41,-1.39 2.53,-3.04 3.29,-4.86c0.77,-1.82 1.16,-3.78 1.17,-5.75v-46.58z" />
</svg>